
<svg xmlns="http://www.w3.org/2000/svg" width="16" height="16" version="1"><g><path d="M7.55 0c-.47.03-.95.1-1.4.18L6 .2v6.17h-6v.05c-.02.2-.02.28-.02.5 0 .34 0 .53.05.84.08.58.25 1.16.5 1.7l.06.13h5.42v4.86l.08-.06c.17-.14.38-.33.55-.5l.1-.12h.03c.2.04.56.07.78.08h.1V0h-.03c-.02 0-.06 0-.08 0z"/><path d="M8.33 3.73v3.73h7.65v-.1c0-.06.02-.2.02-.3 0-.53-.05-1.04-.17-1.55-.03-.12-.1-.37-.1-.4 0 0-.04.02-.1.07-.06.04-.1.07-.1.08-.02 0 0 .06.07.3 0 0 0 0-.12-.1-.06-.04-.1-.08-.1-.08-.02 0-.07.04-.13.1-.12.08-.12.08-.12.07.05-.14.1-.3.1-.3s-.06-.03-.13-.08l-.1-.1h.28l.04-.13c.02-.08.05-.15.05-.15s.02.07.05.15l.04.14h.12c.07 0 .13 0 .13 0 0-.03-.12-.37-.18-.52-.08-.17-.23-.5-.28-.57 0 0-.02 0-.06.03-.03.03-.05.04-.05.04s.02-.05.03-.1l.02-.07-.02-.04c-.06-.1-.15-.24-.16-.25 0 0 0 0 0-.02 0 0-.25-.36-.25-.34 0 0 0 .02 0 .03.02.02.02.03.02.04 0 0-.05-.05-.1-.1-.07-.04-.13-.08-.13-.08s-.06.04-.12.1c-.06.03-.1.07-.1.07s0-.08.03-.15c.02-.08.04-.14.04-.15 0 0-.06-.04-.13-.1l-.1-.08h.13c.08 0 .13 0 .13 0 0-.02-.33-.37-.43-.48-.13-.12-.12-.1-.13-.1 0 0 0 .02.03.15.03.07.05.14.04.14 0 0-.05-.04-.1-.1-.07-.03-.12-.07-.13-.07 0 0-.05.03-.1.08-.07.05-.12.1-.13.1 0 0 .02-.08.05-.15.02-.08.04-.15.04-.15s-.05-.04-.1-.1l-.13-.08H13.62v-.03s0-.02 0-.03c0 0-.12-.1-.27-.23-.1-.07-.3-.22-.3-.22s0 .05.03.12c.02.06.03.1.03.1s-.04-.02-.1-.07l-.12-.1-.07.06c-.03.03-.08.07-.1.1-.03.02-.05.03-.05.03s.02-.08.04-.15c0-.08.03-.15.03-.15s-.05-.05-.1-.1l-.13-.08h.2l-.12-.08c-.2-.12-.58-.32-.6-.32 0 0-.04.02-.08.06-.04.03-.08.05-.08.05s0-.04.02-.08.03-.08.03-.1c0 0-.3-.13-.5-.2-.2-.1-.47-.2-.68-.25-.13-.04-.28-.08-.3-.08 0 0 .03.05.05.12l.04.12h.27l-.06.06c-.03.02-.08.06-.1.1l-.06.02.05.15c0 .07.03.13.03.13s-.02 0-.03 0c0-.02-.06-.06-.1-.1l-.1-.07-.12.1c-.06.03-.1.07-.12.07 0 0 .02-.07.04-.14.03-.1.04-.16.04-.16s-.05-.04-.12-.1l-.1-.08h.28l.04-.12c.02-.07.04-.13.04-.13s-.07 0-.13-.03C9.65.12 9.05.04 8.42 0h-.1v3.73zM8.8.43l.03.13h.28l-.1.1c-.06.04-.1.08-.1.08s0 .08.03.15c.02.07.04.13.04.13s-.13-.1-.2-.16h-.03l-.12.08c-.06.04-.1.08-.1.08s0-.06.03-.14c.02-.1.04-.15.04-.15S8.55.72 8.4.6L8.36.56H8.65L8.7.4c.02-.07.04-.13.04-.12 0 0 .02.07.05.14zm.8.74l.06.14h.14l.14.02-.1.08c-.07.05-.13.1-.13.1s.03.06.06.14c.02.08.04.14.04.14s-.06-.03-.12-.08-.1-.1-.1-.1c-.02 0-.07.05-.13.1-.07.05-.12.1-.12.1s.02-.08.04-.16c.03-.08.05-.15.04-.15 0 0-.04-.05-.1-.1l-.1-.08h.27l.05-.16c.02-.07.05-.14.05-.14s.02.07.04.15zm1.67 0l.05.14h.28l-.1.1c-.07.05-.12.1-.12.1s0 .06.03.14c.04.08.06.14.05.14 0 0-.05-.03-.1-.08l-.13-.1-.07.06c-.04.03-.1.07-.1.1-.04.02-.06.03-.06.03 0-.02 0-.08.03-.16l.05-.14h-.02c0-.02-.06-.06-.1-.1l-.1-.08h.26l.05-.16c.02-.07.04-.14.05-.14 0 0 .02.07.04.15zm-2.48.76l.03.13H9.12l-.12.1c-.06.04-.1.1-.1.1s0 .06.03.14c.02.07.04.14.04.14s-.05-.04-.1-.1c-.08-.04-.13-.08-.13-.08s-.06.04-.12.1c-.06.04-.1.08-.1.07-.02 0 0-.06.03-.14.02-.08.04-.15.04-.15s-.07-.05-.13-.1l-.1-.1h.28l.04-.14c.03-.1.04-.13.04-.12 0 0 .02.08.05.15zm1.83.13h.14l-.04.04c-.03.02-.08.06-.12.1l-.06.05.05.14c0 .07.03.14.03.14s-.05-.04-.12-.1c-.05-.04-.1-.07-.1-.07s-.06.03-.12.08-.1.1-.12.08c0 0 .02-.06.04-.14.03-.08.05-.15.05-.15s-.06-.05-.12-.1l-.1-.08h.27l.05-.15c.02-.07.04-.14.04-.14s.02.05.04.13l.05.16h.13zm1.66 0h.13l-.1.1c-.07.04-.12.08-.13.08 0 0 .02.07.04.15.03.07.05.14.05.14s-.07-.04-.13-.1c-.06-.03-.1-.07-.12-.07 0 0-.05.03-.1.08-.07.05-.12.1-.13.1 0 0 0-.07.04-.14.02-.07.04-.13.04-.14 0 0 0-.03-.1-.1l-.13-.1H11.96l.04-.14c.03-.08.05-.14.05-.15 0 0 .02.06.05.14l.04.16h.15zm-2.7.6l.06.16h.28l-.1.1c-.07.04-.13.08-.13.08s.03.07.06.15c.02.08.04.14.04.14s-.06-.05-.12-.1-.1-.08-.12-.08c0 0-.05.04-.1.08-.08.05-.13.1-.13.1s.02-.08.05-.16c.02-.08.04-.14.04-.14s-.05-.04-.12-.1l-.1-.08h.28l.04-.15c.02-.08.05-.15.05-.14 0 0 .02.07.04.14zm1.67 0l.04.15.16.02h.14l-.1.1c-.08.04-.13.08-.13.08s.02.07.04.14c.04.08.06.14.05.15 0 0-.05-.05-.1-.1-.07-.04-.12-.08-.13-.08 0 0-.05.04-.12.08-.06.05-.1.1-.1.1s0-.08.03-.16l.05-.14-.04-.03c-.02-.02-.07-.06-.1-.1l-.1-.05h.28l.05-.15c.02-.08.04-.15.04-.14 0 0 .03.06.05.14zm1.66 0l.04.15.15.02h.14l-.1.1c-.08.04-.13.08-.13.08s.02.07.04.15c.03.07.04.13.04.14 0 0-.04-.05-.1-.1-.06-.04-.1-.08-.12-.08 0 0-.06.04-.12.08-.06.05-.1.1-.1.1s0-.07.03-.15c0-.07.03-.14.03-.15 0 0-.05-.04-.1-.1l-.13-.08H12.8l.04-.15c.02-.08.04-.15.04-.14 0 0 .02.06.05.14zm-3.96.9h.15l-.12.1c-.06.05-.1.1-.1.1s0 .07.03.14c.02.08.04.14.04.14s-.05-.04-.1-.08c-.07-.05-.13-.1-.13-.1s-.06.05-.12.1-.12.08-.12.08.02-.07.05-.14c.02-.08.04-.14.04-.15 0 0-.06-.04-.13-.1l-.1-.08h.28l.04-.15.04-.15.04.15.05.14h.14zm1.66 0h.14l-.1.1c-.07.05-.12.1-.13.1 0 0 .02.06.05.14 0 .08.03.14.03.14s-.05-.04-.12-.08c-.05-.05-.1-.1-.1-.1s-.07.05-.12.1c-.06.04-.1.08-.1.08-.02 0 0-.07.02-.14.03-.08.05-.14.05-.15 0 0-.06-.04-.12-.1l-.1-.08h.27l.05-.15c.02-.08.04-.14.04-.15 0 0 0 .07.04.15l.05.15h.13zm1.66 0h.13l-.06.06c-.03.02-.08.06-.1.08l-.07.05.04.15c.03.08.05.14.05.14s-.07-.04-.13-.08c-.06-.05-.12-.1-.12-.1s-.06.05-.12.1c-.05.04-.1.08-.1.08s0-.06.03-.14c.02-.08.04-.15.04-.15s-.05-.04-.1-.1l-.13-.08H11.96l.04-.14c.03-.08.05-.15.05-.15s.02.06.05.14l.04.15h.15zm1.65 0h.14l-.13.1c-.06.05-.1.1-.1.1s0 .06.03.14c.03.08.05.14.04.14 0 0-.05-.04-.1-.08-.07-.05-.13-.1-.13-.1s-.04.05-.1.1c-.06.04-.1.08-.12.08 0 0 0 0 0-.02.07-.22.08-.27.08-.27s-.06-.05-.12-.1l-.1-.08h.28l.04-.14c.03-.08.05-.15.05-.15s.03.06.06.14l.04.15h.15zM9.6 4.2l.06.14h.28l-.1.1c-.07.04-.13.08-.13.08s.03.07.06.15c.02.08.04.14.04.14s-.06-.05-.12-.1c-.06-.04-.1-.08-.1-.08s-.07.04-.13.1c-.06.04-.12.08-.12.07 0 0 .02-.07.05-.15l.04-.15-.06-.04c-.03-.03-.08-.07-.12-.1l-.05-.04h.28l.04-.15c.02-.08.05-.14.05-.14s.02.07.04.15zm1.67 0l.04.14H11.6l-.1.1c-.07.03-.12.08-.12.08s0 .06.03.14c.04.08.06.15.06.15s-.05-.04-.1-.1c-.07-.04-.13-.08-.13-.08s-.06.04-.12.1c-.06.04-.1.07-.1.07s0-.07.03-.15l.05-.15-.05-.03c-.02-.02-.08-.06-.12-.1l-.05-.05h.27l.05-.15c.02-.08.04-.14.04-.14s.03.06.05.14zm1.66 0l.04.14H13.26l-.1.1c-.08.04-.13.08-.13.1 0 0 .02.05.04.13.03.07.04.14.04.14s-.04-.04-.1-.1c-.06-.04-.1-.08-.1-.08-.02 0-.07.04-.14.1-.06.04-.1.07-.1.07s0-.08.03-.16l.04-.14-.04-.02c-.02-.02-.07-.06-.1-.1l-.1-.06H12.8l.04-.15c.02-.08.04-.14.04-.14s.02.07.05.14zm1.66 0l.03.14H14.92l-.12.1c-.06.04-.1.08-.1.1 0 0 0 .05.03.13.02.08.04.14.04.14s-.05-.04-.1-.1c-.07-.04-.13-.08-.13-.08s-.06.04-.12.1c-.06.04-.1.07-.1.07s0-.07.03-.15c.02-.07.04-.14.04-.14s-.06-.04-.13-.1l-.1-.08H14.45l.04-.15c.02-.08.04-.14.04-.14s.02.06.05.14zm-5.63.9c.17 0 .17-.02.02.1l-.12.07.05.15c.02.08.04.14.04.14s-.05-.03-.1-.08c-.08-.05-.13-.1-.13-.1s-.06.05-.12.1-.1.08-.1.08 0-.06.03-.14c.02-.08.04-.14.04-.14s-.06-.05-.13-.1l-.1-.1h.28l.04-.14.04-.15.04.15.05.15h.14zm1.66 0h.14l-.1.08-.13.1.05.14c0 .08.03.14.03.15 0 0-.05-.04-.12-.1-.05-.04-.1-.08-.1-.08s-.07.04-.13.1c-.06.04-.1.07-.1.07s0-.07.03-.14c.03-.08.05-.14.05-.14s-.06-.05-.12-.1l-.1-.1h.27l.05-.14.05-.15.04.15.05.15h.13zm1.66 0h.13l-.1.08c-.07.05-.13.1-.13.1s.02.06.04.14c.03.08.05.14.05.15 0 0-.07-.04-.13-.1-.06-.04-.12-.08-.12-.08s-.06.04-.12.1c-.06.04-.1.08-.1.08s0-.07.03-.15c.03-.1.04-.15.04-.15s-.06-.04-.12-.1l-.1-.08h.28l.04-.14c.03-.07.05-.14.05-.15 0 0 .02.06.05.14l.04.15h.15zm1.46-.15l.04.14H14.1l-.12.1c-.07.04-.12.08-.12.08s.02.07.04.15c.03.08.05.14.04.15 0 0-.05-.04-.1-.1-.07-.04-.13-.08-.13-.08s-.05.04-.1.1c-.06.03-.1.07-.12.07 0 0 0-.02.05-.2.02-.04.03-.1.03-.1s-.05-.03-.1-.08l-.13-.1H13.62l.04-.13c.03-.08.05-.15.05-.15s.03.07.06.15zm-2.5.75l.05.14H11.6l-.1.1c-.07.04-.12.08-.12.08s0 .05.03.15c.04.07.06.14.05.14 0 0-.05-.04-.1-.1-.07-.04-.12-.08-.13-.08 0 0-.05.04-.1.1-.08.04-.13.08-.13.08s0-.07.03-.15l.05-.14-.12-.08-.12-.1h.28l.05-.15c.02-.08.04-.14.04-.14s.03.07.05.15zm1.67 0l.04.14H13.26l-.1.1c-.08.04-.13.1-.13.1s.02.06.04.13c.03.08.04.14.04.15 0 0-.04-.04-.1-.1-.06-.04-.12-.08-.12-.08s-.05.04-.12.1c-.06.04-.1.08-.1.08s0-.07.03-.15l.04-.14-.12-.08c-.06-.05-.1-.1-.1-.1s.05 0 .13 0h.14l.04-.15c.02-.08.04-.14.04-.14s.02.07.05.15zm1.66 0l.03.14H14.92l-.12.1c-.06.04-.1.1-.1.1s0 .06.03.13c.02.08.04.14.04.15 0 0-.05-.04-.1-.1-.07-.03-.12-.07-.13-.08 0 0-.05.04-.12.1-.06.04-.1.08-.1.08s0-.07.03-.14c.02-.08.04-.15.04-.15s-.06-.04-.13-.1l-.1-.08h.28l.04-.15c.02-.08.04-.14.04-.13 0 0 .02.07.05.14zm-5 0l.06.14H9.95l-.12.1c-.06.04-.1.08-.1.08-.02 0 0 .07.03.15.02.08.04.15.04.15s-.05-.04-.12-.1c-.06-.04-.1-.08-.1-.08-.02 0-.07.04-.13.1-.06.04-.12.08-.12.08s.02-.07.04-.15c.03-.08.05-.14.05-.14s-.06-.04-.12-.1l-.1-.08h.28l.04-.14c.02-.08.04-.15.05-.15 0 0 .02.07.04.15zm-.63.9c.1 0 .14 0 .14 0s-.04.04-.1.1l-.12.08.05.14c.02.08.04.15.04.15s-.05-.04-.12-.1c-.06-.04-.1-.08-.12-.07 0 0-.05.04-.1.08-.07.05-.12.1-.12.1s.02-.08.05-.16c.02-.1.04-.15.03-.15 0 0-.05-.04-.1-.1l-.12-.07H8.65l.04-.16.04-.14.04.14.05.15h.14zm1.47-.15l.05.14h.13c.08 0 .14 0 .14 0s-.06.05-.12.1l-.1.1.04.13c0 .08.03.15.03.15s-.06-.04-.12-.1c-.05-.04-.1-.08-.1-.08s-.06.04-.12.1c-.06.04-.12.08-.12.08s.02-.06.04-.14c.03-.07.05-.14.05-.14s-.06-.05-.12-.1L10 6.6h.31l.05-.14c.04-.15.04-.15.05-.15 0 0 .02.05.04.13zm1.66 0l.04.14h.28l-.1.1-.13.1.03.08c0 .05.03.12.04.15 0 .02.02.05.02.05s-.06-.04-.12-.08c-.05-.04-.1-.08-.1-.1-.03 0-.03 0-.14.1-.07.04-.12.08-.12.08s.02-.07.04-.15c.03-.08.04-.14.04-.15 0 0-.05-.04-.1-.1l-.13-.07H11.96l.05-.15c.03-.08.05-.14.05-.14s.03.05.05.13zm1.66 0l.04.14H14.1l-.12.1c-.07.04-.12.08-.12.1 0 0 .02.06.04.13.03.08.05.15.04.15 0 0-.05-.04-.1-.1-.07-.03-.12-.07-.13-.07 0 0-.04.03-.1.08-.07.05-.12.1-.12.1s0-.08.04-.16c.02-.07.04-.14.04-.14s-.06-.05-.12-.1l-.1-.08h.28l.04-.15c.03-.08.05-.14.05-.14s.03.05.06.13zm1.66 0l.04.14H15.75l-.12.1c-.06.04-.1.08-.1.1 0 0 0 .02 0 .04 0 .04.03.1.05.16l.02.1v-.02c-.02 0-.07-.05-.13-.1-.05-.03-.1-.06-.1-.06s-.06.03-.12.08-.12.1-.12.1.02-.08.05-.16c.02-.07.04-.14.04-.14s-.06-.05-.12-.1l-.1-.08h.28l.04-.15c.02-.08.05-.14.05-.14s.02.05.05.13z"/><path d="M4.86.55c-1.07.4-2 .96-2.8 1.72-.1.1-.43.46-.53.58l-.07.1 1.77.93L5 4.83v-1.1c0-.58 0-1.56 0-2.15V.5l-.14.05z"/><path d="M.55 4.4c-.1.24-.2.46-.27.7-.03.1-.05.18-.05.18s.3 0 1.12 0h1.13l-.94-.5c-.5-.27-.93-.5-.94-.5 0 0-.02.05-.05.1z"/><path d="M8.33 9.07v.54h7.05l.05-.1c.1-.2.18-.4.25-.63.04-.1.1-.32.1-.33 0 0-1.67 0-3.73 0H8.33v.53z"/><path d="M2.06 10.9l-.43.23.07.1c.16.17.43.43.67.63l.05.05 1.16-.6 1.16-.63H2.5l-.42.23z"/><path d="M8.33 11.22v.53h5.43l.1-.1c.2-.2.42-.4.6-.64.08-.06.23-.26.26-.3v-.02h-6.4v.54z"/><path d="M3.94 11.7c-.58.3-1.06.56-1.06.57 0 0 .02 0 .04.03l.04.02.02.1c.04.44 0 .77-.1 1.14-.2.56-.63 1.12-1.22 1.57-.17.12-.4.27-.57.37l-.1.05V16h.1c.66-.03 1.02-.06 1.47-.12.83-.12 1.6-.34 2.23-.65.07-.03.14-.07.17-.08l.04-.02v-2c0-1.1 0-2 0-2s-.47.25-1.06.57z"/><path d="M8.33 13.35v.5h.12c.06 0 .18 0 .25 0 1.2-.1 2.37-.42 3.4-.96l.1-.07H8.34v.52z"/></g></svg>
