<svg xmlns="http://www.w3.org/2000/svg" viewBox="0 0 16 16"><path d="M6.33,0L5.87,0.1l-0.18,0V6H2.86A14,14,0,0,0,0,6.09a5.2,5.2,0,0,0,0,1.25A7,7,0,0,0,.45,8.79L0.55,9H5.67v4.29l0.17-.17L6,13l0.24,0c0.13,0,.43,0,0.65,0,0.38,0,.42,0,0.4-0.06l-0.1-.34a5.65,5.65,0,0,1,0-3.11,5.17,5.17,0,0,1,3.23-3.42L10.68,6H8.54V3.09c0-1.62,0-2.95,0-3L8,0.05A8,8,0,0,0,6.33,0Z" transform="translate(0)"/><path d="M4.32,0.52A7.29,7.29,0,0,0,2.17,1.85a6.85,6.85,0,0,0-.85.92,2.41,2.41,0,0,0,.4.23L3.93,4.18,4.65,4.56,4.76,4.62V2.5a15.5,15.5,0,0,0,0-2.12Z" transform="translate(0)"/><path d="M9.45,2.5c0,1.17,0,2.12,0,2.12l2.79-1.47,0.65-.36a5.7,5.7,0,0,0-1-1.06A7,7,0,0,0,9.48.38S9.45,1.33,9.45,2.5Z" transform="translate(0)"/><path d="M11.45,4.09C10.5,4.6,9.73,5,9.74,5l1.07,0h1.06l0.89-.47a8.42,8.42,0,0,0,.9-0.51,3.44,3.44,0,0,0-.41-0.79l-0.07-.09Z" transform="translate(0)"/><path d="M0.45,4.3A2.2,2.2,0,0,0,.23,5S2.36,5,2.38,5s-1.61-.88-1.8-1A0.54,0.54,0,0,0,.45,4.3Z" transform="translate(0)"/><path d="M13.38,6.06l0.77,0.3c0.05,0,.06,0,0.06-0.15V6H13.77A1.62,1.62,0,0,0,13.38,6.06Z" transform="translate(0)"/><path d="M11.49,7a6,6,0,0,0-.9.23c-0.28.1-.31,0.15-0.22,0.3s0.09,0.06.32,0.05H11l-0.23.19L10.5,8a5.81,5.81,0,0,0,.16.58,0.41,0.41,0,0,1-.23-0.14l-0.25-.19L10,8.44l-0.24.19A1.45,1.45,0,0,1,9.8,8.32,2.89,2.89,0,0,0,9.88,8l-0.12-.1c-0.11-.09-0.11-0.09-0.24,0A6.76,6.76,0,0,0,8.57,9a0.23,0.23,0,0,0,0,.24l0,0.13H9.18l-0.45.36a1.76,1.76,0,0,0,.14.6,0.41,0.41,0,0,1-.23-0.14L8.4,9.93l-0.16.13a0.51,0.51,0,0,0-.21.43,2.8,2.8,0,0,0,0,1.06,3.71,3.71,0,0,0,.24.92,1.54,1.54,0,0,0,.07-0.24L8.4,12l0.09,0.31,0.09,0.31H9.19l-0.24.19a1.25,1.25,0,0,0-.24.21,2.36,2.36,0,0,0,.07.26,1,1,0,0,0,.32.5,1.09,1.09,0,0,0,.74.5H10L10.09,14a0.68,0.68,0,0,1,.1-0.28s0.05,0.15.1,0.3l0.07,0.28H11l-0.23.19a0.91,0.91,0,0,0-.24.24,2.68,2.68,0,0,0,1.26.32A4,4,0,0,0,13,15c0.16,0,.17,0,0.26.06a0.52,0.52,0,0,0,.11.11A0.35,0.35,0,0,0,13.4,15l0.06-.2a0.66,0.66,0,0,0-.23-0.24L13,14.34l0.3,0,0.3,0,0.09-.3,0.09-.3L13.86,14,14,14.32h0.61l-0.22.18-0.24.2a1,1,0,0,0,.05.32,1.34,1.34,0,0,1,.06.29L14,15.14,13.77,15l-0.17.13-0.17.13,0.09,0.09a3.8,3.8,0,0,0,.73.48,1.84,1.84,0,0,0,.87.21h0.24l0.08-.24c0.1-.3.1-0.33,0-0.49a2.77,2.77,0,0,1-.19-0.39,1.38,1.38,0,0,1-.12-0.62,2.63,2.63,0,0,1,0-.51c0-.13,0-0.14,0-0.1s0,0,0-.28A0.88,0.88,0,0,0,15.23,13L15,12.83l-0.21-.17h0.61l0.08-.31L15.55,12l0.08,0.26,0.08,0.26,0.06-.17A4.17,4.17,0,0,0,16,10.47,0.55,0.55,0,0,0,15.63,10c-0.08-.06-0.09-0.05-0.31.13l-0.24.19A2,2,0,0,1,15.16,10a2.82,2.82,0,0,0,.09-0.32L14.78,9.3h0.29c0.28,0,.29,0,0.32-0.09a0.51,0.51,0,0,0-.17-0.54,4.4,4.4,0,0,0-.79-0.81c-0.09-.06-0.15,0-0.3.09s-0.06.06,0,.31l0.09,0.31A0.41,0.41,0,0,1,14,8.45l-0.25-.19-0.22.18a0.63,0.63,0,0,1-.23.16,2,2,0,0,1,.08-0.31A1.65,1.65,0,0,0,13.46,8l-0.24-.19L13,7.63h0.3c0.29,0,.3,0,0.33-0.1a0.53,0.53,0,0,0,0-.13,2.91,2.91,0,0,0-1-.32A4.79,4.79,0,0,0,11.49,7ZM12.07,9l0.09,0.3h0.59l-0.45.36a1.76,1.76,0,0,0,.14.6,0.41,0.41,0,0,1-.23-0.14A0.56,0.56,0,0,0,11.94,10l-0.44.35A2,2,0,0,1,11.59,10a2.82,2.82,0,0,0,.09-0.32L11.21,9.3h0.59L11.88,9c0-.17.09-0.31,0.09-0.3S12,8.83,12.07,9Zm-1.79,1.68L10.38,11H11l-0.24.19a1.36,1.36,0,0,0-.24.21s0,0.15.08,0.31a1.56,1.56,0,0,1,.07.29l-0.24-.18-0.23-.19L10,11.77,9.74,12a0.63,0.63,0,0,1,.06-0.29,2.65,2.65,0,0,0,.09-0.32L9.42,11H10l0.09-.31c0-.17.09-0.31,0.09-0.3S10.24,10.51,10.29,10.67Zm3.58,0L14,11h0.59l-0.24.19a1.36,1.36,0,0,0-.24.21s0,0.15.08,0.31a1.56,1.56,0,0,1,.07.29L14,11.79l-0.23-.19-0.21.17L13.31,12a0.63,0.63,0,0,1,.06-0.29,2.65,2.65,0,0,0,.09-0.32L13,11h0.59l0.09-.31c0-.17.09-0.31,0.09-0.3S13.81,10.51,13.86,10.67Zm-1.8,1.66,0.09,0.3h0.61l-0.24.19a1.25,1.25,0,0,0-.24.21s0,0.16.08,0.31,0.08,0.29.08,0.29l-0.24-.18L12,13.28l-0.21.17-0.25.19a0.63,0.63,0,0,1,.06-0.28A0.86,0.86,0,0,0,11.65,13l-0.24-.19-0.21-.17,0.3,0,0.3,0,0.08-.29c0-.16.09-0.3,0.09-0.3S12,12.16,12.07,12.33Z" transform="translate(0)"/><path d="M9.94,7.6s0,0,0,0a0.08,0.08,0,0,0,.05,0s0,0,0,0A0.07,0.07,0,0,0,9.94,7.6Z" transform="translate(0)"/><path d="M14,7.6a0.1,0.1,0,0,0,.08,0c0.05,0,.05,0,0,0S13.93,7.55,14,7.6Z" transform="translate(0)"/><path d="M3.38,10l-1.06,0-0.39.21-0.42.23a3.43,3.43,0,0,0,.61.68l0.11,0.1,1.12-.6C4,10.35,4.48,10.06,4.48,10s0,0,0,0Z" transform="translate(0)"/><path d="M4.46,10.61l-1,.55-0.78.41V11.9A2.18,2.18,0,0,1,2.44,13a2.53,2.53,0,0,1-.44.68,3.84,3.84,0,0,1-1,.84c-0.11,0-.11.06-0.11,0.29v0.24h0.2a13.39,13.39,0,0,0,1.82-.25,6.69,6.69,0,0,0,1.48-.55l0.34-.19V12.28c0-1,0-1.82,0-1.81Z" transform="translate(0)"/><path d="M15.6,15.51l0.08,0.27C15.74,16,15.74,16,15.87,16S16,16,16,15.89a0.36,0.36,0,0,0-.21-0.28A0.29,0.29,0,0,0,15.6,15.51Z" transform="translate(0)"/></svg>
