<?xml version="1.0" standalone="no"?>
<!DOCTYPE svg PUBLIC "-//W3C//DTD SVG 20010904//EN"
 "http://www.w3.org/TR/2001/REC-SVG-20010904/DTD/svg10.dtd">
<svg version="1.0" xmlns="http://www.w3.org/2000/svg"
 width="512.000000pt" height="512.000000pt" viewBox="0 0 512.000000 512.000000"
 preserveAspectRatio="xMidYMid meet">
<metadata>
Created by potrace 1.11, written by Peter Selinger 2001-2013
</metadata>
<g transform="translate(0.000000,512.000000) scale(0.100000,-0.100000)"
fill="#000000" stroke="none">
<path d="M2064 4659 c-44 -5 -105 -12 -135 -16 l-54 -8 -3 -773 -2 -772 -834
0 c-751 0 -834 -2 -840 -16 -13 -33 -5 -214 14 -326 21 -126 65 -274 113 -380
l30 -68 758 0 759 0 2 -561 3 -562 50 45 50 45 70 -8 c39 -4 126 -8 194 -8
113 -1 123 0 118 16 -3 10 -17 50 -31 89 -89 248 -93 565 -10 813 139 418 507
763 958 896 l81 24 -317 0 -318 1 0 769 c0 424 -4 772 -8 775 -4 3 -72 12
-150 20 -150 17 -364 19 -498 5z"/>
<path d="M1470 4531 c-256 -94 -442 -196 -638 -348 -81 -63 -252 -227 -252
-241 0 -4 53 -31 118 -61 141 -66 406 -190 655 -307 100 -48 197 -93 215 -100
l32 -14 0 555 c0 438 -3 555 -12 554 -7 0 -60 -17 -118 -38z"/>
<path d="M2990 4015 c0 -305 2 -555 4 -555 4 0 258 118 826 384 102 48 188 90
193 95 11 11 -185 198 -293 277 -164 121 -293 194 -472 268 -80 33 -234 86
-250 86 -5 0 -8 -250 -8 -555z"/>
<path d="M3583 3597 c-282 -132 -511 -242 -509 -244 2 -2 145 -4 317 -4 l314
1 264 123 c145 67 265 127 268 134 5 13 -86 170 -121 208 l-21 23 -512 -241z"/>
<path d="M322 3543 c-43 -93 -72 -182 -63 -188 10 -5 631 -8 637 -2 3 3 -476
231 -532 254 -6 2 -25 -27 -42 -64z"/>
<path d="M4155 3083 c22 -6 199 -66 228 -78 15 -6 17 -1 17 39 l0 46 -132 -1
c-73 -1 -124 -4 -113 -6z"/>
<path d="M3595 2823 c-71 -9 -196 -37 -267 -59 -82 -26 -93 -40 -65 -78 11
-15 26 -17 95 -14 45 2 82 2 82 1 0 -1 -30 -23 -67 -49 -38 -26 -70 -49 -72
-50 -2 -2 27 -99 47 -153 3 -8 -27 8 -68 36 l-73 51 -67 -49 c-37 -27 -70 -49
-72 -49 -3 0 8 37 24 81 16 45 27 82 26 83 -2 1 -18 12 -37 25 -34 24 -34 24
-70 5 -42 -22 -259 -235 -283 -279 -14 -27 -15 -34 -2 -63 l14 -33 85 3 c47 2
85 3 85 2 0 -1 -108 -78 -133 -95 -8 -6 10 -75 41 -158 3 -8 -27 8 -68 37
l-73 52 -46 -34 c-44 -32 -47 -38 -63 -113 -21 -100 -22 -166 -3 -278 16 -91
63 -250 72 -241 2 2 13 30 22 62 l18 57 27 -81 27 -81 91 -3 90 -3 -71 -49
c-39 -26 -71 -51 -71 -55 0 -4 9 -35 21 -69 18 -53 32 -72 95 -131 111 -103
157 -131 219 -131 l51 0 24 80 c13 44 27 77 30 72 3 -4 16 -40 29 -79 l22 -73
92 0 91 0 -69 -50 c-39 -28 -70 -55 -70 -62 0 -26 211 -74 373 -84 101 -7 263
7 352 30 48 13 50 12 76 -16 15 -15 31 -28 34 -28 4 0 12 18 19 41 7 23 14 46
17 53 3 7 -28 34 -68 62 l-72 49 89 5 90 5 26 79 26 79 28 -82 28 -81 91 0 90
0 -64 -46 c-36 -26 -68 -50 -72 -53 -4 -4 3 -41 16 -84 13 -42 22 -77 19 -77
-2 0 -33 21 -69 46 l-65 46 -49 -33 -50 -34 28 -23 c41 -34 150 -97 217 -125
96 -40 179 -58 257 -55 l70 3 24 64 c30 79 30 86 -2 128 -14 18 -39 63 -57
101 -27 57 -32 81 -35 162 -2 53 0 112 6 133 9 34 9 36 -7 27 -15 -8 -14 3 11
72 16 45 25 84 20 87 -4 3 -37 26 -72 51 l-63 45 90 3 90 3 25 81 25 81 24
-68 23 -67 19 44 c59 137 82 348 55 495 -12 67 -20 77 -98 126 -24 15 -27 14
-92 -34 -37 -27 -69 -49 -71 -49 -2 0 9 37 25 81 16 45 27 83 26 84 -16 9
-138 97 -138 98 0 1 38 1 85 -1 84 -3 85 -3 95 23 18 47 10 69 -50 142 -61 73
-185 186 -234 212 -27 15 -43 11 -90 -24 -17 -13 -17 -16 4 -82 13 -37 25 -75
28 -82 3 -8 -27 8 -68 36 l-73 51 -66 -48 c-36 -27 -67 -45 -69 -41 -1 4 9 40
23 81 14 40 24 74 22 75 -1 1 -33 23 -72 49 l-70 46 88 0 c85 0 88 1 97 26 6
14 10 29 10 34 0 16 -181 68 -292 84 -96 15 -267 19 -343 9z m172 -509 l28
-79 88 0 c48 0 87 0 87 -1 0 -1 -108 -78 -133 -95 -8 -6 10 -75 41 -158 3 -8
-27 8 -68 37 -44 31 -78 48 -84 43 -40 -30 -126 -91 -129 -91 -2 0 9 37 25 81
16 45 27 83 26 84 -16 9 -138 97 -138 98 0 1 39 2 87 2 l87 0 26 82 c14 44 26
80 27 79 1 -1 15 -38 30 -82z m-530 -440 l28 -79 88 0 c48 0 87 -1 87 -1 0 -1
-31 -23 -70 -50 -38 -26 -70 -50 -70 -54 0 -4 11 -40 25 -80 14 -40 24 -74 22
-76 -1 -1 -33 20 -70 47 l-68 50 -62 -44 c-34 -24 -67 -46 -73 -50 -6 -3 2 30
18 75 16 44 27 82 26 83 -68 47 -138 97 -138 98 0 1 39 2 87 2 l87 0 26 82
c14 44 26 80 27 79 1 -1 15 -38 30 -82z m1060 0 l28 -79 88 0 c48 0 87 -1 87
-1 0 -1 -31 -23 -70 -50 -38 -26 -70 -50 -70 -54 0 -4 11 -40 25 -80 14 -40
24 -74 22 -76 -1 -1 -32 20 -70 47 l-67 50 -63 -44 c-34 -24 -67 -47 -73 -50
-6 -3 2 30 18 75 16 44 27 82 26 83 -68 47 -138 97 -138 98 0 1 39 2 87 2 l87
0 26 82 c14 44 26 80 27 79 1 -1 15 -38 30 -82z m-532 -434 l26 -79 91 -3 90
-3 -71 -49 c-39 -26 -71 -51 -71 -55 0 -4 11 -41 25 -81 14 -40 25 -75 25 -77
0 -2 -31 20 -70 48 l-70 51 -62 -44 c-35 -24 -68 -47 -75 -51 -6 -4 2 29 18
74 17 45 26 85 21 88 -4 3 -37 26 -72 51 l-63 45 89 5 89 5 25 77 c14 43 26
78 27 78 1 0 13 -36 28 -80z"/>
<path d="M3135 2680 c-3 -5 -2 -10 4 -10 5 0 13 5 16 10 3 6 2 10 -4 10 -5 0
-13 -4 -16 -10z"/>
<path d="M4325 2680 c3 -5 14 -10 23 -10 15 0 15 2 2 10 -20 13 -33 13 -25 0z"/>
<path d="M1190 2040 l-315 -5 -115 -54 c-63 -29 -119 -57 -123 -61 -8 -7 114
-127 180 -177 l33 -25 332 156 c183 86 334 160 336 166 2 5 0 9 -5 8 -4 -1
-150 -5 -323 -8z"/>
<path d="M1510 1892 c-41 -20 -179 -86 -306 -145 l-230 -108 4 -87 c6 -114
-10 -183 -64 -293 -35 -68 -65 -111 -131 -179 -82 -87 -218 -189 -290 -219
-32 -13 -33 -15 -33 -77 l0 -64 60 0 c94 0 413 39 539 65 149 32 311 85 439
145 l102 49 0 475 c0 262 -3 476 -7 475 -5 0 -42 -17 -83 -37z"/>
<path d="M4812 609 c3 -8 14 -40 24 -71 17 -57 18 -58 56 -58 35 0 38 2 38 28
0 23 -11 36 -62 72 -34 23 -59 37 -56 29z"/>
</g>
</svg>
